<?xml version="1.0" encoding="UTF-8"?>
<svg id="Camada_1" data-name="Camada 1" xmlns="http://www.w3.org/2000/svg" version="1.1" viewBox="0 0 3871 2367">
  <defs>
    <style>
      .cls-1 {
        fill: #ff5678;
      }

      .cls-1, .cls-2, .cls-3, .cls-4 {
        stroke-width: 0px;
      }

      .cls-1, .cls-3 {
        fill-rule: evenodd;
      }

      .cls-2 {
        fill: #2941ab;
      }

      .cls-3 {
        fill: #000;
      }

      .cls-4 {
        fill: #daecff;
      }
    </style>
  </defs>
  <g id="composition-12">
    <rect class="cls-2" width="3871" height="2367"/>
    <path id="Path" class="cls-4" d="M3330.8-281.6c274.7,108.6,319,623.8,232.1,1024.3-86.9,400.5-304.2,685.5-439.8,966.1-135.6,279.8-188.6,554.3-353.8,589-165.1,33.9-443.3-171.2-789.2-76.5-346.8,95.6-762.3,490-913.5,450.9-152.1-39.1-40-511.7-219-923.5-179.1-411.8-650.2-761.9-521.5-842.7,127.8-80.8,856.2,107.7,1243.8,36.5,386.8-71.2,432.9-401.4,708.4-716.8,274.7-315.4,778.8-615.1,1052.6-507.4Z"/>
    <g id="Character_selfie" data-name="Character/selfie">
      <path id="Accent" class="cls-1" d="M2174.6,1185.5c3.3-1.3,12.9-7.3,16.4-6.7,5.8,1.1,15.4,17.7,19.3,22.4,12.7,15.2,25.3,30.3,38,45.5,5.1,6.1,12.4,12.4,16,19.5,2.8,5.4,3.7,12.9,5.4,18.7,20.6,72,40.7,144.4,55.7,217.8,3.2,15.8,6.3,31.7,8.1,47.7.9,7.9,3.2,19.6-.2,27.2-3.9,8.6-16.4,12.2-24.5,14.9-15.8,5.2-32.4,8.3-48.8,11.1-39.5,6.7-79.5,10.6-119.4,13.7-12.2,1-24.7.9-36.9,2.6-5.8.8-4.1-.8-5.9,3.1-2.5,5.4-.9,16.7-1.2,22.6h0l-2.1,41.6c-1.9,37.8-3.9,75.6-5.8,113.4-2,38.3-3.9,76.7-5.9,115-.7,14.5-1.5,29-2.2,43.6-.4,7.8.8,17.8-1.3,25.3-1.6,5.7,1,4-6,4.3-16.1.8-32.9-1.2-49-1.8-18.3-.7-36.6-1.3-55-2-5.2-.2-11.1,1.3-13.2-2.5-2.6-4.6-.6-17.1-.8-22.2-.5-14.2-1-28.4-1.5-42.6h0l-4.2-117c-1.9-53.2-3.8-106.4-5.7-159.6-20.4,4.1-40.7,8.2-61.1,12.3-30.1,6.1-60.2,12.1-90.3,18.2-13.8,2.8-30.2,9.1-44.5,7.1-14.2-2-20-8.1-20.8-21.5-.9-14.4-.5-28.9-.3-43.3.3-23.6,1-47.2,1.9-70.7,40.2-3.6,80.4-7.2,120.7-10.9,21.4-1.9,42.8-3.9,64.2-5.8,4.9-.4,16.8.5,19-3.2,3.4-5.7-.4-24.4-.5-30.9-.3-20.3-.6-40.6-1-60.9-1.2-74.7-2.3-149.4-3.5-224,9.6.3,19.3.6,28.9.9,41.9,1.2,84,2.9,125.9,1.6,21-.6,40.9-6.3,60.8-13,10.5-3.6,21-7.4,31.3-11.5ZM2134.2,1387.3l-21.4,104.7,73.2-4.9-51.8-99.8Z"/>
      <g id="Ink">
        <path id="ink-shape" class="cls-3" d="M2745.9,538.5c-1.5,11.6-.4,24.3-13.6,27.4-12.2,2.8-25.5,2-37.9,3-13.9,1.1-27.8,2.6-41.7,4-17.5,1.7-15-5-18.9-20-3.5-13.7-9.1-27.3-13.7-40.7-2.2-6.2-4.7-11.9-7.7-17.7-2.7-5.3-1.4-12.5-4.3-16.9-9.8-15.2-57.7,26.3-62.1,18.1,8.1-6.3,22.1-13.4,24.6-24.2,2.9-12.7-5.1-16.5-15.3-11.8-24.9,11.4-53.7,20.3-80.9,24.5,8.8-5.9,88.3-52.2,61.6-65.9-6-3.1-14,2.7-19.5,4.9-8.6,3.5-17.6,5.8-26.6,8.1-9.5,2.4-19,4.7-28.5,6.9-6.7,1.5-18.6,7-25.1,5.7-6.6-1.4,5.1-5.5,7-6.4,8.4-4.2,16.6-8.7,24.7-13.3,14.5-8.1,27.8-17.5,38.8-30.1,8.3-9.5,22-30.2,16.2-43.3-3.3-7.6-10.7-14.6-15-21.8-5-8.4-9.1-17.4-13.5-26.1,7.3,3.2,15.5,4,23,6.9,7.5,2.9,15.1,5.2,22.8,7.4,15.6,4.3,31.1,5.1,46.6,8.6,17.5,4,35.7,8.4,53.5,10.7,15.5,2,29.4,6.2,42.6,14.7,27.1,17.2,45.9,42,55.4,72.6,5.6,17.9,6.9,36.6,7.6,55.3.7,19.7,2.1,39.8-.4,59.4M2594,539.9c-18.9,13.8-40.9,24.5-61.2,36.3-11.6,6.7-23.5,13-35.3,19.3-8.4,4.5-18.6,12.7-27.9,15-5.9,1.4-5.4,1.6-9.1-3.8-3.5-5.1-6.6-10.6-9.9-15.8-6.1-9.7-12.3-19.3-18.4-28.9-13.8-21.6-27.6-43.2-42.1-64.3-14.6-21.2-28.5-42.8-42.7-64.3-6.6-10-13.1-20-20-29.8-5.3-7.4-18.9-18.8-12.5-27.5,6-8.1,19.7-14.9,27.8-21,9.9-7.5,19.9-14.9,29.7-22.5,21.2-16.2,41.9-33.2,63.1-49.4,18,31.6,39.2,61.1,60.5,90.5-19.3,12.3-38.8,24-59.2,34.6-15,7.8-38,18.3-47.5,33.1-9.4,14.6-.2,31.3,16.5,31.6,10,.2,19.9-2.5,29.7-4,7.1-1.1,19.9-6.2,26.3-2.6-11.4,7.3-52.9,28.5-30.6,47.2,16,13.3,43-6.1,60.3-2.1-5.3,10.1-10.7,26.2,3.9,31.7,12.2,4.6,28.1-3.9,39-8.5,7.9-3.3,15.8-6.6,23.5-10.2,6.2-2.8,13.6-8.6,20.2-9.8,7.7-1.4,23.4,20,16,25.4M2242.5,1284.1c10.8-2,16.4-6.4,19.8,6.7,3.1,11.8,6.1,23.1,10,34.6-16.9,1.5-31.8,9.5-44.1,20.9-8.8,8.1-26.2,27.4-21.9,40.9,10.5,32.9,63.6-40.9,69.9-48.8,7.7,11.3,10.6,26.1,14.4,39,2.7,9.2,12.9,26.8-.5,29-18.8,3.1-54.1,10.1-51.9,36.8,2.6,31.4,42.6,31.3,65.1,32.7,12.7.8,12.7,10.9,14.5,22.3.8,5.1,3.3,11.9-1,15.6-3.8,3.3-15.5,3.4-20.5,4.5-14.5,3.1-29,6.3-43.5,9.4-16.5,3.5-25.2-1.4-40.6-5.9-5.7-1.7-11.4-1-11.9-7.4-.3-3.9,3.6-10,4.8-13.9,5-15.3,9.2-31.1,10.6-47.2,2.1-23.4-.5-58.5-29.3-63-13.7-2.2-16.3-2.9-22.5-15.7-6.7-13.9-17.3-26.8-14.8-42.8,1.9-11.6-1.3-33.6,6.1-43.2,3.4-4.5,10.1-7.1,14.7-10.4,5.8-4.2,11.4-8.6,16.8-13.3,4.6-3.9,10.1-11.6,15.3-14.4,6.3-3.5,6.5-1.1,11,4.3,6.7,8,17.3,31.6,29.5,29.4M2273.1,1336.1c-3.7,7.6-12.4,14.6-17.9,20.9-5.6,6.4-10.8,13.1-17,18.8-6.8,6.3-31,21.6-25.7,1,4.1-16,19.7-29,33.3-37,2.6-1.6,33.6-16.6,27.3-3.8M2299.5,1412.4c2.4,10.7,3.7,21.8,5.7,32.6,1.1,5.5,6.9,18.9,4.5,24.2-4,9-40.1-1.7-47.6-4.8-17.8-7.4-26-26.3-9.6-39.8,6.2-5.1,44.5-22.9,46.9-12.2M2323.2,1541.2c2,10.2,7.9,19.7-1.8,27.5-8.1,6.4-21.3,10.8-31.3,13.1-13.6,3.1-17.9-4.5-25.1-14.3-7.7-10.5-15.9-20.7-24.5-30.5,26.8-6,53.6-12,80.3-18,0,7.5.9,14.9,2.3,22.2M2259,1588.7c-14-.7-29,3.5-43.2,4.6-17.7,1.4-35.3,3.4-53,4.6,4.5-14.5,12.7-27.4,19.1-41,6.4-13.7,10.9-15.2,25.6-16.3,13.6-1,23.2-5.7,33.3,5.9,10.5,12,19.9,25.1,29.5,37.8-3.3,2.2-7.1,4.6-11.3,4.4M2159.2,1591.7c-3.4,2.5-14.1-4.6-17.7-6-7-2.7-8.5-3.6-12.1-10.3-3.1-5.8-8.1-12.5-9.1-19.1-1.3-8.8,2.6-20.4,4-29.1,3.8,9.1,16.1,10.1,24.5,11.6,6.3,1.1,25.1-.7,29.8,3.8,5.3,5-4.4,18.9-7,24.1-3,6.2-6.7,20.8-12.5,25M2152.5,1598.9c-4.1.7-16.1,4.8-15.8-2.8.3-8.6,16.7.7,15.8,2.8M2131.4,1598.5c-.8,7.3-16.4,6.7-16.8.3-.6-10.8,18-11.9,16.8-.3M2113.5,1402c-4,11.4-28.4,15.5-37.8,19-8.6,3.2-34.1,18-43,12.6,29.9-20.5,60.5-40.7,85.8-66.9,1,6.5-.5,11.9-2.5,18-1.7,5.5-.8,12.1-2.6,17.2M2106.1,1443.7c-4.3,28-8.5,56.3-14.3,84-11.1-3.4-20.2-10.3-31.9-12.6-10.6-2.2-21.6-2.2-32.3-.6-22.8,3.4-43.2,14.7-63.1,25.7-1.8-19.2-5.7-39.7-5.2-58.9.4-16,27.7-20.7,40.1-27.3,7.5-4,14.3-9.6,22.8-11,8.8-1.4,17.3-1.4,26-4.1,20.5-6.3,39.9-16.4,60-23.9,1.6,9.6-.6,19.4-2.1,28.8M2086.9,1562c-.9,6.4.2,17.7-4.6,22.5-4.6,4.6-14.3,4.7-20.3,5.9-18.3,3.8-36.6,7.6-54.9,11.5-8.2,1.7-16.4,3.4-24.6,5-3.9.7-13.8,4.5-17.1,1.4-3.1-3-.8-12.4-.6-16.4.3-7.9.8-15.9.3-23.8-1-15.2-.1-21,14.1-28.9,15-8.4,30.6-14.1,47.5-17.2,17.1-3.1,33.5-1.4,49.8,5.2,4.5,1.8,11.4,4.1,13.5,9,2.9,6.7-2.1,19.1-3,25.9M2066.3,1807.2c-6.7,4.2-21.3,3.5-29,4.3-12.5,1.4-25,.6-37.4-1.3-9.3-1.4-23.2-3.4-30.4-10-10.1-9.3,1.6-9.7,9.3-9.1,22.6,1.9,45.4.6,68-1.1,4.4-.3,16.2-4.2,20.4-2.4,5.4,2.3,3.8,16.5-.9,19.5M2053.5,1957.4c-42-4.1-66.4-38.9-81.7-74.5-8.2-19.1-5.2-39.2-6-59.4-.1-3.7-2.5-12.9,1.3-15.6,3.6-2.6,18,5.4,21.9,6.4,20,4.9,42.1,5.4,62.2.6,8.7-2.1,13.5-5.9,16.3,2.7,2.2,6.9-1.4,19.7-1.8,27-.7,12.6,1.3,114.1-12.2,112.8M1969.5,1957.4c-.2-6.1-3.2-67.7-.3-67.9,8.9,19.1,18,36.3,34.1,50.3,8.2,7.2,17.5,13.7,27.8,17.5,3.9,1.4,25.8,2.6,26.9,7.4,1.9,8.4-13.1,5-17.6,4.3-3.6-.6-6.8-2.1-10.3-2.7-6.7-1.2-13,.4-19.7.6-10.2.2-20.2-.9-30.4,0-9.3.8-10.5-.3-10.8-9.5M1975.7,1681c36-11.6,66.1,10.4,85.1,39.2,10.8,16.4,13.3,27.9,11.4,47.4-.7,7,.6,11.7-5.8,14.5-6.3,2.8-20.8.7-27.6,1-19.7.9-39.4,2.1-59.1,1-12.8-.8-14.6-2.9-14.4-15.4.3-15-1-29.9-1.8-44.9-.9-16.2-6.5-36.8,12.4-42.9M1963.9,1659.4c0-11-.6-22.3,0-33.3.7-10.9,5.3-10.4,15.6-12.2,22.3-4,44.5-8.5,66.5-14,8.7-2.2,18.5-6.3,27.6-6.3,9.5,0,9,4.8,8.4,13.3-1.4,18.6-4.8,37-5.9,55.5-1.1,20-1.7,40.3-1.6,60.3,0,6.8,1.7,11.8-4.1,5.4-5.8-6.3-8.6-16.4-13.8-23.6-10.6-14.6-26.2-26.3-43.7-31.3-9.6-2.7-19.7-3.2-29.6-1.2-3,.6-17.9,7.7-19.8,6.3-1.3-1,.2-18.5.3-19M2095.6,2040.9c14.3,10.2,30.1,18.5,46.1,25.7,9,4,44.7,12.5,45.8,21.6.6,4.8-5.3,10.3-9.2,10.8-4.9.7-13-2.5-18-3.1-18.2-2.2-36.3-2.2-54.1-7.3-35.4-10.1-72.1-13-107.9-21.8-8.5-2.1-17-4.1-25.6-6-8.1-1.8-11.8-1.5-12.1-10.2-.6-19.1,4.8-38.6,4.9-57.9,29,3.3,58,3.3,87,6,12.4,1.2,12.2,3.5,17.6,14.4,5.7,11.3,15.3,20.4,25.4,27.7M1954.4,1421.5c-.4-7.1-.7-14.1-1.3-21.2-.4-4.7-4.7-17.9-2.3-21.6,2.9-4.4,5.8-1.7,11-1.8,6.8-.2,12.5-2.9,18.2-6.5,10.7-6.8,18.6-15.7,25.5-26.2,6.1-9.2,5-21.7,4.9-32.8-.2-28.5,1.9-56.2.1-84.8-.8-13.1,10.4-5.1,19.5-3.4,14.8,2.8,30.9.9,45.9.9-.6,3.5-31.3,12.2-36.3,15.5-12.7,8.5-20.1,22-19,37.4,2.3,31.1,36.5,36.2,61.5,36.3-20.7,18.3-41.1,35.8-57.4,58.4-12,16.7-33.2,49.6-13.5,68-17.4,9.9-34.6,20.8-54.2,25.6-.9-14.6-1.8-29.3-2.6-43.9M1946.5,854.7c7.1,4.5,10-1.9,15.4-5.2,7.6-4.7,10.1-4.2,11-14.7,1.8-19.4-6.4-37-16.6-52.8-4.7-7.2-9.3-15.8-15.9-21.5-6-5.1-12.1-3.4-17.6-8.7-2.2-2.1-1.7-5-5.3-5-2.4,0-8.1,7.4-10.1,9-6.2,5.1-13.8,9-21.9,4.8-11.8-6.2-8-28.5,1.2-35.7,7.1-5.6,15.4-4.7,23.5-5.6,6-.7,7.3-.4,4.8-7.3-1.7-4.8-5.7-8.6-7.7-13.3-3.8-9.1-3-20.1-4.6-29.7-1.5-8.6-4.9-17.9-4.8-26.7.2-11.1,3.8-14,13.4-17.1,9.3-3,17.1-9.7,25-15.3,9-6.3,18.9-10.5,28.1-16.3,6.3-3.9,10.3-11.9,17.3-8.2,8.2,4.4,16.9,17.2,23.9,23.7-10.2,6.5-12.6,9.3-11.2,22,1.3,11.6,3.7,22,12.6,30.1,3.4,3.1,9.8,5.6,12.4,9.2,3.1,4.2,1.1.5.7,5.2-.2,2.5-2.2,4.2-1.8,7.2,2,13.1,17,5.4,23.2.8,22.1-16.2-19.2-29.1-29-35.1-6.8-4.1-10.1-17.1.6-13.7,7.1,2.3,23.3,21.8,24.9,4,17.7,10.3,28.6,32.1,43.5,46,10.7,10,25.1,21,16.6,36.9-10.8,20.3-32.3,29.5-51.9,38.3-19,8.5-15.1,32.5-4.9,47.2,5.9,8.5,13.6,13.5,22.8,17.6,9.5,4.2,11.4,9.2,13.5,19,2.3,10.9-.1,15.2-9.6,20.9-9.2,5.5-18.8,10.8-28.6,15.1-21.2,9.3-43.2,9.9-65.8,13-7.9,1.1-15.5,3.4-19.8-4.4-4.9-8.8-5.2-24-7.4-33.8M1943.1,812.5c-5.3-2.8-18.1,6.5-24.8,6.9-10.9.7-18,.4-27.6,6.2-18.2,10.9-33.3,24.9-47.9,40.1-16.5,17.1-32.8,34.3-49.2,51.5-7.4,7.8-14.9,15.5-22.4,23.2-5.9,6-11.8,14.5-19.1,18.8.4-5.1,3.5-8.7,4.6-13.5.6-2.8-.5-5.1,0-7.8.1-.9,2.5-3.9,2.8-4.8.9-2.6,2.1-5.2,3.2-7.8,1-2.5.9-5.1,1.9-7.7,1.1-2.7,4.1-4.5,5.1-7.2,3-7.8-2-11.4-10-11.2,3.1-15.6,4.5-23.3,20.8-28.8,15.6-5.3,30.8-11.2,45.2-19.4,12.7-7.3,23.3-17.8,35.6-26,11-7.3,24.6-14.9,24.5-29.9,6.2,4.2,12,7.8,19.1,3.6,6-3.5,6.8-6.4,13.7-7.1,5.7-.5,9.2-.7,14.2,1.8,5.9,2.9,6.8,5,10.2-3.7,3.9,3.3,13.9,17.1,13.5,22.5-.2,3-.6,4.4-4.4,5.2-5.3,1.1-5.1-2.9-9-4.9M1918.4,1628.3c-2.6,4-13.5,3.2-17.7,3.2-12.8-.2-17.3-10.9-22.9-21.3-8.9-16.4-22.1-50.4-7.6-67.6,11.5-13.6,33.8,3.5,41.7,13.8,6.8,8.9,4.8,22.1,5.4,32.8.5,9,6.2,31.4,1.1,39.2M1883.4,1634.2c-5.1,5.1-21.8,4-28.5,5.1-12.1,2-24.2,4.3-35.9,7.9-8.8,2.7-17.4,9.8-19.7-2.4-1.9-10.3-1-22.6-.8-32.9.2-11.2,1.4-22.2,2.3-33.3.7-7.5-1-21.4,5.2-27.1,5.3-5,18.2-5.5,25-7.1,11.3-2.7,23.1-6.3,34.8-5-6.8,18.6-7.4,38,0,56.5,2.1,5.3,20.9,35.1,17.8,38.3M1797.2,1560.3c-2.9,27.9-5.7,56-3,84.1.2,1.7,2.2,9.3,1.3,10.5-.9,1.2-8,1.9-9.6,2.3-6.4,1.5-12.8,3.1-19.3,4.5-12.6,2.6-14.2-5.3-16.7-17-5.3-25,5-52,11.2-76,3-11.7,5.3-13,16.7-14,8-.7,20.6-6.3,19.4,5.6M1748.6,1664.5c-4.8,4.4-9.6-16.2-10-18.3-1.7-8.3-.7-16.8-.7-25.3,0-13.2-1-26.4-1-39.6,0-7.1-5.4-21.7,3.1-25.5,2.5-1.1,12.3-.6,14.5.8,4.6,3,2.8,5,1.4,10.2-3.1,11.8-5.7,23.7-8.4,35.6-2.6,11.7-5.2,22.9-4,35,.4,4,8.1,24.3,5.1,27M1901.8,1534.4c11.7-3.3,12.3,5.7,12.3,14.3-1.8-1.4-18.4-12.5-12.3-14.3M1745.2,904.1c-2.9,4.7-21,6-26.2,7.3-10.2,2.4-20.4,4.9-30.6,7.4-19.1,4.8-37.7,10.2-57.3,12.7,10.7-17.2,14.1-32.1,12.1-53.5-2.5-27.1-5.7-53.9-12-80.5-6.2-26.2-13.3-52.2-20.1-78.2-3.4-12.8-7-25.3-11.5-37.7-3.6-10-9.2-22.5-3.1-32.7,15.5,11.3,27.9,23.5,36.7,40.6,9.5,18.4,17.7,37.3,28.7,54.9,5,8,10.9,15.4,16.3,23.2,3.2,4.6,5.5,11.3,9.6,15.2,4.7,4.5,9.7,6.6,12.4-1,2.9-8.2-6.3-24.3-9-32-6.5-18.5-13-37-18.1-55.9-4.1-15.3-10.8-33.9-8.4-50.1,2.4-16,13.2-4.6,18.7,2.9,11.3,15.4,18.1,33.3,25.6,50.7,6.8,16,14.8,31.2,22.4,46.9,2.6,5.4,6.1,19.5,13,21.1,10,2.4,9.2-11.8,8.2-17.5-6.4-38-23-74.4-26.4-113.1-.2-1.8-2.6-16.2-.6-17.4,3.7-2.3,8.8,12.3,10.4,15.8,8.4,18.6,14.2,38.2,19.6,57.8,4.6,16.7,8.7,33.5,13.8,50,2.8,9.1,6,18,9.2,27,2.9,8.1,5.8,22,13.3,27.3,10.6,7.6,48.7-10.5,52.6,5.7,2.7,11.5-32.6,20.7-40.1,24.2-9.9,4.6-19.6,9.6-29.5,14.2-7.5,3.5-18.3,4.9-23.7,11.4-5.7,6.9-6.7,16.6-6.8,25.2-.1,6.5,4.4,22.5,1,28.1M1721.1,1029.3c-.5,3.6-3.4,8.4-4.7,11.8-2.6,7-4.9,15.3-8.5,21.9-3.1,5.6-7.8,10.6-10.8,16.4-2.9,5.4-3.3,11.7-6.6,17.1-3.8,6.2-10.2,10.7-14,16.8-1.9,3-3.8,6.5-6.5,9.7-9.4,11.5-18.8,22.3-26.3,34.5-1.9,3.1-11.4,16.9-15.2,17.6-7.9,1.5,1.3-9.6,2.8-12,11.2-16.7,21.1-34.4,31.8-51.3,10.4-16.5,21.1-32.8,31.1-49.5,8.2-13.6,13.8-33.2,27.1-42.8,0,3.3,0,6.5-.3,9.8M2084.8,875.5c6.5,26.6,14.2,52.4,21.5,78.8,6.8,24.5,15.8,50.7,18.6,75.9,2.8,25,9.2,50.3,17.8,74,4,11,8.1,22,12.4,32.9,2.4,6,5,11.8,7.7,17.6,2.1,4.5,7.6,11.9,7.8,16.6.2,3.8,1.5,2.3-2.3,5.2-3.9,3-10.7,1.9-15.3,2.4-11.9,1.4-23.5,5.9-35.2,8.8-22.4,5.6-49.1,10-72.1,6.1-9.7-1.6-19.7-3.1-29.2-5.2-11.8-2.6-14.2-7.5-16.6-19-5.3-25.3-9.8-50.4-14.2-75.9-5.2-30.2-10.8-60.4-14.8-90.9-4-30.8-6.9-61.6-13.3-92,25.5,4.3,49.6,9.1,75.2,2.1,22.7-6.2,39-18.3,51.9-37.5M2184.7,1205.2c5.7,11.8-8,22.3-14.7,31.4-8.8,11.9-17,24.4-27.2,35.2-3.1-12.3-5.8-26.1-13.9-36.2-10.5-12.9-22.7-7.6-35.5-13.7,13.4-6.5,30.6-4,44.8-9.9,14.1-5.7,28.2-10.3,41.3-17.7,1.7,3.6,3.5,7.2,5.2,10.8M2134.9,1479.5c-8.6.5-2.8-17.6-2.3-22.1,1.5-12.4,3.1-24.7,4.4-37.1,7.1,18.7,14.2,37.3,21.2,56-7.8,1.1-15.5,2.8-23.4,3.2M2120.9,1569c1.2,2.6,6.6,11.3,2.3,12.9-5.9,2.2-6.6-12.2-2.3-12.9M2110.7,1367.9c-27.3,21.8-54.5,43.7-84.1,62.5-6.5,4.1-13,5.8-17.3-2.3-3.4-6.4.2-13.6,2.4-19.9,5.5-16,15.1-29.9,25.8-43,21.3-26,46.6-48.3,79-58.5,5.3-1.7,13.5-6.7,15.3.3,1.1,4.1-3.5,14.4-4.5,18.3-3.9,16-3,31.9-16.6,42.8M2189.4,1527c.6,18.5-50.1,3.6-56.4.3,6.6-2.2,56.1-8.6,56.4-.3M2208.2,1527.2c3,.8,14.6,1.8,10.2,5.8-3.9,3.5-21.3,2.1-26,2.5,3.1-10.2,5.5-11,15.7-8.3M2198.8,1502.3c-1.1,4.1-1.6,10.4-5.3,13.2-4.6,3.5-14.4,1.4-19.6,1.4-8.9,0-17.7.5-26.5,1.4-3.4.3-17,4.4-20.2,1.6-2.3-2.1-1.5-11.7.2-13.9,3.5-4.5,11.5-2.9,16.5-3.1,18.3-.7,36.5-.7,54.9-.7M2187.1,1433.8c-2.6-3.8-3-3.8-4.2-9.6-1.2-6.2-4.2-11.5-5.9-17.5-3.9-13.2,8.5-12,17.6-7.2,23.6,12.6,17.9,56.5,12.1,77-8.5-6.2-11.6-9.1-14.5-19.1-1.1-3.8-2.4-7.6-3.5-11.4-.8-2.8-.3-10.3-1.5-12.2M2189.1,1220.1c6.6-.8,12.6,19.6,10.7,24.1-3.9,9-18.6,17.1-26.1,22.9-5,3.8-9.9,8.2-15.3,11.6-5,3.1-7.8,1.4-12.4,2.9-6.7,2.2-8.3,9.2-15.1,12.2-9.6,4.3-21.2,5.5-31.2,9.3-12.2,4.7-23.3,4.8-36,2.6-18.3-3.2-39.8-12.3-38.2-34.5,2.9-39.3,81-59.4,102.3-26.1,5.5,8.7,5.5,18.8,9.1,28.1,3.9,10.1,7.7,6.1,13.5-1.3,7.7-9.7,14.8-20,22.2-29.9,2.4-3.2,11.8-21.2,16.6-21.8M1710.7,1602.8c-.4,6.7,0,13.5-2.3,19.8-2.3,6.4-7.1,11.6-9.8,17.9-5.5,12.7-5.5,28-5.3,41.6.5,31.6,8,62.3,12,93.5-13.2,0-26.8.1-39.5-3.6-11.4-3.4-13.2-11.7-16.4-22.2-9.1-29.5-18.8-58.8-21.8-89.7-1.4-14.7-2-29.5-2.6-44.3-.6-12.9,2.3-18.6,14-25,25.4-13.9,51.7-25.5,76.9-40.1-2.6,17.3-4.1,34.8-5.1,52.3M2795.5,568.1c-6.2-1.1-12.4-1.8-18.7-2.6-3.3-.4-13.4.2-15.8-2-2.9-2.5,2.1-21.6,2.4-25.7,1.6-24.7-.3-50.1-2.5-74.6-4.1-44.5-18.1-85.6-50.3-117.7-16.1-15.9-34.1-28.6-56-34.7-12.8-3.6-25.9-5.5-38.7-8.9-10.3-2.8-20-6-30.7-7.1-21.4-2.2-41-10.3-61.9-15-15.4-3.4-40.1-11.6-50,5.7-7.8-9.2-15.7-16.1-25.6-23-9.5-6.6-11-13.1-22.6-5.5-22.5,14.7-43.7,32.7-64.7,49.5-19.7,15.7-38.7,32.1-59.3,46.5-21,14.7-17,39.6-7.1,60.3,18.6,38.9,47.3,72.2,72.4,105.5,15.7,20.9,31.5,41.8,47.2,62.8,15,20,27.9,43.2,45.4,61.1,11,11.3,24.2-3.5,34.2-10.3,12.4-8.5,24.5-17.3,36.9-25.8,25.8-17.7,53.3-34.2,80.5-49.6,2,5.6,4,11.2,5.9,16.8-6,.4-14-.9-17.1,5.5-4.3,9.2,6.3,10.4,8.2,15.6,1.7,4.7-5.2,17.1-7.2,21.3-4.6,9.5-10.9,17.8-17.9,25.6-27.7,31.1-62.8,53.3-98.3,74.5-38.1,22.7-78.8,36.5-120.5,51.1-21.2,7.4-43.2,10.9-65,15.6-21.1,4.6-42.1,10.6-63.6,12.3-44,3.5-90.8,6.2-134.3-3.3-4.8-1-9.8-3.3-14.6-3.7-3.9-.3-6.8,1.3-10.4,1.5-7.9.5-12.4-6.6-18.6,0-3.1,3.3-3.2,8.8-7.5,2.7-5.5-7.8,8.6-9.3,13.9-11.5,17.7-7.5,31.9-22.5,43.2-37.6,11.2-15.2,12.8-31.3,6-49.1-6.8-17.7-22.4-29.8-34.1-44.2-5.6-7-10.8-14.4-17-20.9-3.3-3.5-8.6-6.8-8.9-10.3-.2-4.1,2.2-6.1.7-11.1-.4-1.3-2-2-2.3-3.4-.5-2.3.3-4.2,0-6.4-.7-5-2.6-8.2-5.4-12.3-1.7-2.6-4.3-7.8-6.7-9.7-4.2-3.4-9.9-2-14.2-5.4-6.8-5.4-9.1-16.9-15.1-23.5-8.4-9.3-10.2,0-19.2-2.9-7.6-2.5-7.5-14-13.7-17.9-8.7-5.5-16,4.6-23.7,6.8-10.2,3-6.3-8.5-15.3-9.5-8.2-.9-19.5,15.6-23.6,21.5-4.2-4.8-8.7-13.1-16.2-10.1-7.8,3.1-9.2,17.5-15,22.7-2,1.8-1.6,3.1-4,3.9-3.2,1.1-7.4-3.5-11.5-2.1-8.3,2.8-7.3,13.9-7.3,21-9.8-1.4-16.6-2.2-19.8,8.4-3.2,10.3-4.4,5.8-14.7,9.1-8.9,2.9-10.1,11.3-11.6,19.6-.9,5.1,0,7.2,1.3,11.9,1.7,5.9,1.7,5.8-1.1,11.4-4.9,9.8-5.2,20.6-6,31.4-.8,11.5-2.9,22,.4,33.2,2,7,2.2,16.4,9,20.3,2.7,1.5,7.3.7,9.6,2.2,4.4,2.9,3.1,7.4,6,11.6,2.2,3.2,5.7,3.5,8.2,6.1,2.7,2.8,2.8,6.3,4.3,9.7,4.5,10.2,8.7,15.1-5.9,15.7-9,.4-18.7,3.1-27.7,2.2-10.6-1-13.3-6.9-16.7-16-17.1-45.6-26.2-95.1-48.7-138.4-4.9-9.5-25.2-48.4-33.7-20.1-7.2,23.9,2.3,53.1,5.9,76.9-11.4-10.3-15.6-28.8-24.3-41.3-6.4-9.3-26.4-32-38.1-19-9.2,10.3-6.9,32.1-5.2,44.3,2.7,19.4,8.9,38.2,13.3,57.2-5.6-7.3-8.3-16.2-12.2-24.4-4.9-10.3-10.9-20.1-17.8-29.2-6-7.9-12.8-15.3-20.1-22-5.6-5.2-15.6-16.5-23.6-17.1-20.4-1.6-14,35.9-10.9,46.7,6.5,22.2,13.5,43.8,18.5,66.5,9.8,44.3,21.7,87.6,28.9,132.4,1.6,9.9,3.5,17.9-.4,27.4-3.5,8.4-7.1,18.5-13.5,25-14.5,14.7-26.5,30.3-37.3,48-11.6,18.9-23.5,38.1-33,58.2-4.4,9.2-7.9,19.2-12.9,28.1-4.5,8-9.9,14.4-13.2,23.3-15.3,42.5-26.7,84.2-31.9,129.1-4.3,36.9-.3,86,44.3,94.6,20.5,4,38.9-5.1,57.3-12.6,19.1-7.7,32.9-20.3,48.5-33.7,19.4-16.6,39.4-32.2,59-48.6,19.6-16.4,37.6-34.5,57.1-51.1,19.2-16.3,36.6-33.7,53.2-52.7,16.5-18.8,29.9-39.7,45.9-58.8,0,24.7-3.7,49.2-4.8,73.9-.9,22.6-1,45.2,0,67.9.9,22.6-5.1,44.1-5.1,66.7,0,22-.9,43.9-1.4,65.9-.2,9.9-2.1,20.9,1.5,30.4,2.8,7.1,11.4,9.3,18.8,11.2,11.4,3,45.7-2.7,50.8,9.4,2.8,6.6,0,18.7.2,26.1.4,12.1.8,24.2,1.2,36.3.4,12.5.8,25,1.3,37.5.4,11,2.5,23.3,1.2,34.2-1.1,9.3-6.6,8.1-15.2,8.6-13,.7-26.1,1.3-39.1,1.9-19.1.8-39.1.5-57.4,2.7-7.7.9-16.1.5-24.2,2.1-10.2,1.9-19.6,2.4-29.9,2.9-8.3.4-19-.2-25.6,6-2.3,2.1-2.8,4.7-4.4,7.1-3,4.5-1.3,3.3-6.3,4.3-19.3,3.9-37.7,8.3-56.6,14.9-9.5,3.3-18.2,7.7-27.7,10.8-8.3,2.7-14.4,6.1-18.5,14.2-7.4,14.6-5.5,35.7-5,51.4.8,24.5,6.3,47.9,12.2,71.6,6.1,24.7,10.9,50,22.8,72.7,3.9,7.5,8.1,17,16.1,20.8,10.3,5,26.2,2,37.4,2,7.6,0,27.8,2.6,33.4-3.7,5.5-6.1,0-23.4-.8-31-2.7-26.7-7.6-53.6-7.5-80.4,6.2,9.1,16.8,24.8,27.5,10.9,2.6-3.4,1.6-5,6.3-7,2.6-1.1,8-1.8,10.8-1.6,3.8.3,5.2,1.8,8.8,1,3.1-.7,6.6-3.5,10.2-4.3,44.3-10.5,88.2-21.9,132.7-31.2,11.8-2.5,10.1,6.5,10.9,16.7.9,11.2-.8,22.6.8,33.7,1.4,9.7,2.4,19.1.5,28.8-2.3,11.5-.8,21,1.4,32.4,8.6,43.8,7.1,91.3,9,135.8,1,23.2-1.2,46.9,1,69.9.8,8.7,5.7,13.5,7.7,21.4,2.3,9.1-3.9,20.7-5.8,29.5-3.8,17.7-10.4,43,1.7,58.4,6.5,8.3,15.1,9.5,24.8,12.3,11.6,3.4,23,7.3,34.7,10.5,42.6,11.6,88.6,13.9,132.2,20.3,10.7,1.6,20.6,1.4,31.3.7,6.6-.5,22.9,1.7,28.5-2.2,3-2.1,1.5-4.8,3-7.4,2.1-3.7,4.7-5.2,8.3-7.5,6-3.8,13-6,14-13.9,2.5-19.2-21.5-29.4-34.3-37.7-16.4-10.6-36.2-14.7-53.6-23.4-9.6-4.8-18.9-10.2-28.1-15.6-4-2.4-12.1-5-14.9-8.7-2.9-3.8,0-9.2,1.1-14.6,4.9-22.3,3.2-45.1,5.8-67.6,2.5-22.6,1.8-45.3,2.7-68,.9-23.4,2.8-46.7,4.3-70,1.4-21.6,2.7-43.4,3-65,.2-20,2.9-39.6,3.6-59.8.2-6.8-1-19.2,3.5-25,4-5.1,17.2-4.4,23.3-5.3,16.6-2.4,32.3-4.5,48.7-6,39-3.4,82.3-6,119.2-19.6,15.2-5.6,35.4-13.3,40.5-30.7,5.8-20.1-1.8-44.7-2-65.2-.3-21.9-6.6-43.3-11.4-64.5-5.1-22.8-8.4-46.1-13.9-68.8-5.1-20.9-13.3-39.4-21.1-59.2-3.2-8-21.2-35.7-15.6-42.6,3-3.7,13.8-4.6,18.2-6.3,9.5-3.6,19-7.7,27.7-12.9,11.7-6.9,37.2-18.3,38.4-33.6,1.1-14.6-13.3-29.4-20.6-40.9-11.8-18.5-26.7-34.7-37.9-53.6-22.7-38.2-40.7-80-57.3-121.2-8.7-21.5-11.5-41.8-12.9-64.8,25.1,0,50.7,3.2,75.7-.4,27.2-3.8,54.4-10.3,81.3-15.6,49-9.7,96.1-20.6,141.6-42.3,42.5-20.4,85.7-42.7,120.9-75,18.2-16.7,36.8-33.8,52.5-52.9,16.2-19.6,28.3-42,40.8-64,13.8-24.3,24.7-49.9,33.4-76.6,1.7-5.4,1.8-12.2,4-17.2,2.5-5.7,7.1-5.9,11.9-8.9,6.7-4.2,11.2-18.4-.5-20.5"/>
        <path id="ink-shape-2" data-name="ink-shape" class="cls-3" d="M2210.5,295.5c5.7,4.9,30.5,22.3,38.5,18.1,9.9-5.2-5.8-20.9-10-24.8-5.4-4.9-24.5-19.8-31.8-18.5-14.6,2.8-1.9,20.7,3.3,25.2"/>
        <path id="ink-shape-3" data-name="ink-shape" class="cls-3" d="M2222.8,473.9c3.2-6.4,11.9-8.7,15.9-14.9,4.8-7.4,7-13.9,5.2-23-12.3,4.1-26.3,16.7-34.5,26.4-6.9,8.2-16.6,25.3,1.3,25.3-.2-2.4-.3-4.9-.5-7.3,5.4.8,10.1-1.7,12.6-6.5"/>
        <path id="ink-shape-4" data-name="ink-shape" class="cls-3" d="M2164.2,367.6c7.9,2.3,14.5,2,22.6,2.1,5.9.1,13.9,3.4,18.7-.3-4.2-2.4,1.1-2.6,0-5-.9-2-2.5-1.3-3.9-2.9-4.8-5.7-9-5.7-16.7-6.9-5.9-.9-14.7-3.1-20.4-.1-6,3.1-8.3,10.7-.3,13"/>
        <path id="ink-shape-5" data-name="ink-shape" class="cls-3" d="M2277,543.5c5.1-4.3,10.7-16.7,11.7-23.2.4-2.5-1.4-4.4-1.2-6.3.4-3.5,7.7-10.3,0-13.2-6.6-2.5-12.9,17.1-14.6,21.4-1.7,4.4-6.4,12.9-5,17.2,1.2,3.5,5.5,6.9,9,4"/>
        <path id="ink-shape-6" data-name="ink-shape" class="cls-3" d="M2338.3,277.1c4.6-4.3,7.6-9.2,7.1-15.1-.4-4.7-3.9-20.7-7.8-20.3-13,1.6-7.2,42.7.7,35.4"/>
        <path id="ink-shape-7" data-name="ink-shape" class="cls-3" d="M2062.9,995.5c-1.1-3.9-5-28-11.7-26.3-5.1,1.2.2,22.4.4,25.2.5,5.8-10.7,5.6-15.9,4.8-8.2-1.2-7.6-6.1-8.8-13.6-.5-2.8-2.2-15.6-8.2-10.9-4,3.2-1.1,19-.8,22.6,1.2,12.5,2.5,33.8,9.9,45.1,3,4.5,5.6,6.7,8.7,1,3.1-5.9-4-23.7-5.2-29.7,5.9.6,22.8-1.3,26.3,4.8,3.2,5.6-1.9,21.5,8.4,22.8,6.1.8,5-6.4,4.4-11.8-1.2-11.5-4.6-22.7-7.6-33.7"/>
        <path id="ink-shape-8" data-name="ink-shape" class="cls-3" d="M2078.6,990c-6.8,3.1,1.7,47.9,11.7,46.4,11.6-1.7-5.2-49.4-11.7-46.4"/>
        <path id="ink-shape-9" data-name="ink-shape" class="cls-3" d="M2071.1,975.2c-.8,10.1,12.3,13.8,12.9,2.9.5-8.5-12-13.5-12.9-2.9"/>
        <path id="ink-shape-10" data-name="ink-shape" class="cls-3" d="M1999.1,707.7c6,22.3,60.5,31.8,53.1,1.7-3.7-15.1-19-1.7-29.7-3.4-6.9-1.1-27.6-14-23.4,1.7"/>
        <path id="ink-shape-11" data-name="ink-shape" class="cls-3" d="M1985.4,667.9c2.6-11.9-23.5-25.1-33-21.8-13.9,4.8-13.8,35.5-3.2,43.7,1.4,1.1,5.7,3.6,7.7,1.6,3.3-3.2-.3-2.4-1.1-5.6-1.2-5.1-5.2-11.7-1.2-17.6,7.5-11,27.1,16.7,30.8-.3"/>
        <path id="ink-shape-12" data-name="ink-shape" class="cls-3" d="M1905.8,725.8c-9.4-.5-17.1,14.1-3.3,12.9,2.7-.2,8.4-.9,9.9-3.7,2.5-4.6-2.5-8.9-6.6-9.2"/>
        <path id="ink-shape-13" data-name="ink-shape" class="cls-3" d="M2362.5,377.6c-3.2-4.7-10-12.2-15.8-7.5-5.2,4.1-4.3,14.4-2.3,19.5,5.3,13.7,17.9,25.9,32.1,18-4.9-9.9-7.7-20.8-14-30"/>
      </g>
    </g>
  </g>
</svg>